REM DIRINDEX 1\2,1\3,1\4,1\5
REM DIRNAME "folder01","folder02","folder03","folder04","folder05"
TITLE ""
FILE "1Q_t_0119-0128.mp3" MP3
  TRACK 01 AUDIO
    TITLE "2:cjc172_1269"
    INDEX 01 00:00:00
  TRACK 02 AUDIO
    TITLE "0:"
    INDEX 01 00:01:08
  TRACK 03 AUDIO
    TITLE "3:cjc172_1270"
    INDEX 01 00:01:63
  TRACK 04 AUDIO
    TITLE "0:"
    INDEX 01 00:03:05
  TRACK 05 AUDIO
    TITLE "4:cjc172_1271"
    INDEX 01 00:03:22
  TRACK 06 AUDIO
    TITLE "0:"
    INDEX 01 00:04:22
  TRACK 07 AUDIO
    TITLE "5:cjc172_1272"
    INDEX 01 00:04:37
  TRACK 08 AUDIO
    TITLE "0:"
    INDEX 01 00:09:62
  TRACK 09 AUDIO
    TITLE "3:cjc172_1273"
    INDEX 01 00:10:40
  TRACK 10 AUDIO
    TITLE "0:"
    INDEX 01 00:11:47
  TRACK 11 AUDIO
    TITLE "4:cjc172_1274"
    INDEX 01 00:11:65
  TRACK 12 AUDIO
    TITLE "0:"
    INDEX 01 00:16:13
  TRACK 13 AUDIO
    TITLE "5:cjc172_1275"
    INDEX 01 00:16:29
  TRACK 14 AUDIO
    TITLE "0:"
    INDEX 01 00:21:48
  TRACK 15 AUDIO
    TITLE "3:cjc172_1276"
    INDEX 01 00:22:26
  TRACK 16 AUDIO
    TITLE "0:"
    INDEX 01 00:23:35
  TRACK 17 AUDIO
    TITLE "4:cjc172_1277"
    INDEX 01 00:23:52
  TRACK 18 AUDIO
    TITLE "0:"
    INDEX 01 00:26:18
  TRACK 19 AUDIO
    TITLE "5:cjc172_1278"
    INDEX 01 00:26:33
  TRACK 20 AUDIO
    TITLE "0:"
    INDEX 01 00:31:66
  TRACK 21 AUDIO
    TITLE "3:cjc172_1279"
    INDEX 01 00:32:46
  TRACK 22 AUDIO
    TITLE "0:"
    INDEX 01 00:33:70
  TRACK 23 AUDIO
    TITLE "4:cjc172_1280"
    INDEX 01 00:34:11
  TRACK 24 AUDIO
    TITLE "0:"
    INDEX 01 00:37:66
  TRACK 25 AUDIO
    TITLE "5:cjc172_1281"
    INDEX 01 00:38:05
  TRACK 26 AUDIO
    TITLE "0:"
    INDEX 01 00:44:41
  TRACK 27 AUDIO
    TITLE "3:cjc172_1282"
    INDEX 01 00:45:19
  TRACK 28 AUDIO
    TITLE "0:"
    INDEX 01 00:46:44
  TRACK 29 AUDIO
    TITLE "4:cjc172_1283"
    INDEX 01 00:46:61
  TRACK 30 AUDIO
    TITLE "0:"
    INDEX 01 00:50:14
  TRACK 31 AUDIO
    TITLE "5:cjc172_1284"
    INDEX 01 00:50:30
  TRACK 32 AUDIO
    TITLE "0:"
    INDEX 01 00:56:25
  TRACK 33 AUDIO
    TITLE "3:cjc172_1285"
    INDEX 01 00:57:02
  TRACK 34 AUDIO
    TITLE "0:"
    INDEX 01 00:58:37
  TRACK 35 AUDIO
    TITLE "4:cjc172_1286"
    INDEX 01 00:58:53
  TRACK 36 AUDIO
    TITLE "0:"
    INDEX 01 01:00:67
  TRACK 37 AUDIO
    TITLE "5:cjc172_1287"
    INDEX 01 01:01:08
  TRACK 38 AUDIO
    TITLE "0:"
    INDEX 01 01:08:43
  TRACK 39 AUDIO
    TITLE "3:cjc172_1288"
    INDEX 01 01:09:21
  TRACK 40 AUDIO
    TITLE "0:"
    INDEX 01 01:10:36
  TRACK 41 AUDIO
    TITLE "4:cjc172_1289"
    INDEX 01 01:10:52
  TRACK 42 AUDIO
    TITLE "0:"
    INDEX 01 01:13:25
  TRACK 43 AUDIO
    TITLE "5:cjc172_1290"
    INDEX 01 01:13:41
  TRACK 44 AUDIO
    TITLE "0:"
    INDEX 01 01:21:28
  TRACK 45 AUDIO
    TITLE "3:cjc172_1291"
    INDEX 01 01:22:06
  TRACK 46 AUDIO
    TITLE "0:"
    INDEX 01 01:23:10
  TRACK 47 AUDIO
    TITLE "4:cjc172_1292"
    INDEX 01 01:23:25
  TRACK 48 AUDIO
    TITLE "0:"
    INDEX 01 01:26:28
  TRACK 49 AUDIO
    TITLE "5:cjc172_1293"
    INDEX 01 01:26:43
  TRACK 50 AUDIO
    TITLE "0:"
    INDEX 01 01:34:09
  TRACK 51 AUDIO
    TITLE "3:cjc172_1294"
    INDEX 01 01:34:60
  TRACK 52 AUDIO
    TITLE "0:"
    INDEX 01 01:36:04
  TRACK 53 AUDIO
    TITLE "4:cjc172_1295"
    INDEX 01 01:36:22
  TRACK 54 AUDIO
    TITLE "0:"
    INDEX 01 01:37:37
  TRACK 55 AUDIO
    TITLE "5:cjc172_1296"
    INDEX 01 01:37:53
  TRACK 56 AUDIO
    TITLE "0:"
    INDEX 01 01:43:52
  TRACK 57 AUDIO
    TITLE "3:cjc172_1297"
    INDEX 01 01:44:25
  TRACK 58 AUDIO
    TITLE "0:"
    INDEX 01 01:45:60
  TRACK 59 AUDIO
    TITLE "4:cjc172_1298"
    INDEX 01 01:46:01
  TRACK 60 AUDIO
    TITLE "0:"
    INDEX 01 01:47:04
  TRACK 61 AUDIO
    TITLE "5:cjc172_1299"
    INDEX 01 01:47:20
  TRACK 62 AUDIO
    TITLE "0:"
    INDEX 01 01:53:26
